HIERARCHY
ROOT Hips
{
	OFFSET 0.00000 0.00000 0.00000
	CHANNELS 6 Xposition Yposition Zposition Yrotation Zrotation Xrotation 
	JOINT Lumbar
	{
		OFFSET 0 0 0
		CHANNELS 3 Zrotation Xrotation Yrotation
		JOINT Neck
		{
			OFFSET 0.00 0.2701 0.00
			CHANNELS 3 Zrotation Xrotation Yrotation
			End Site
			{
				OFFSET 0.00 0.1379 0.00
			}
		}
		JOINT RightShoulder
		{
			OFFSET 0.0119 0.2289 0.1181
			CHANNELS 3 Zrotation Xrotation Yrotation
			JOINT RightElbow
			{
				OFFSET 0.00 -0.1475 0.00
				CHANNELS 2 Zrotation Yrotation
				JOINT RightWrist
				{
					OFFSET 0.00 -0.1605 0.00
					CHANNELS 2 Zrotation Xrotation
					End Site
					{
						OFFSET 0.0040 -0.1068 0.0006
					}
				}
			}
		}
		JOINT LeftShoulder
		{
			OFFSET 0.0119 0.2289 -0.1181
			CHANNELS 3 Zrotation Xrotation Yrotation
			JOINT LeftElbow
			{
				OFFSET 0.00 -0.1475 0.00
				CHANNELS 2 Zrotation Yrotation
				JOINT LeftWrist
				{
					OFFSET 0.00 -0.1605 0.00
					CHANNELS 2 Zrotation Xrotation
					End Site
					{
						OFFSET 0.0040 -0.1068 -0.0006
					}
				}
			}
		}
	}
	JOINT RightHip
	{
		OFFSET 0.0316 -0.0424 0.0458
		CHANNELS 3 Zrotation Xrotation Yrotation
		JOINT RightKnee
		{
			OFFSET 0.00 -0.2438 0.00
			CHANNELS 1 Zrotation
			JOINT RightAnkle
			{
				OFFSET 0.00 -0.2449 0.00
				CHANNELS 3 Zrotation Xrotation Yrotation
				End Site
				{
					OFFSET 0.1237 -0.0542 0.0051
				}
			}
		}
	}
	JOINT LeftHip
	{
		OFFSET 0.0316 -0.0424 -0.0458
		CHANNELS 3 Zrotation Xrotation Yrotation
		JOINT LeftKnee
		{
			OFFSET 0.00 -0.2438 0.00
			CHANNELS 1 Zrotation
			JOINT LeftAnkle
			{
				OFFSET 0.00 -0.2449 0.00
				CHANNELS 3 Zrotation Xrotation Yrotation
				End Site
				{
					OFFSET 0.1237 -0.0542 -0.0051
				}
			}
		}
	}
}
MOTION
Frames: 28
Frame Time: 0.02
0.23837 -0.00251 0.09988 479.33057 -46.36368 -2.72047 26.10954 6.32637 -6.01954 6.41879 -0.08677 -2.11994 20.06175 -13.16032 9.73199 34.71441 80.49986 -3.45211 0.52335 15.6599 10.87863 -7.75952 41.50722 -76.1221 -6.37799 -1.84305 63.67476 -1.17502 -11.33152 -25.92788 -7.57875 -1.99929 -3.25308 65.73823 7.43449 11.7364 -31.51581 -8.2044 2.96458 3.75102
0.23908 -0.00277 0.10289 478.0906 -46.7997 -2.97985 25.05362 6.47144 -5.55794 6.13693 -0.13794 -2.11994 21.18637 -12.76071 10.13238 33.4235 80.68339 -3.35987 0.38364 16.72273 10.26138 -8.20653 40.65146 -76.61141 -6.09265 -1.72505 64.27291 -1.12487 -11.82681 -25.60118 -7.65026 -1.85425 -3.18818 66.41731 7.90373 12.8839 -31.69976 -8.2144 2.9431 3.74121
0.23996 -0.00311 0.10575 476.88453 -47.21545 -3.32109 23.93513 6.63372 -5.14742 5.78605 -0.17024 -2.11994 22.46706 -12.22921 10.24962 31.75464 80.82812 -3.3091 0.25464 17.72675 9.66444 -8.83019 39.79953 -77.11015 -5.78521 -1.60347 64.93537 -1.08594 -12.01487 -25.33358 -7.70686 -1.62486 -3.08245 67.1159 8.50553 14.16486 -31.96084 -8.19889 2.90437 3.72177
0.24077 -0.00341 0.10867 475.67429 -47.64309 -3.6189 22.84508 6.78599 -4.72167 5.47138 -0.20992 -2.11994 23.69476 -11.76179 10.53568 30.23223 80.96811 -3.25212 0.13403 18.76117 9.05334 -9.35796 38.93161 -77.61049 -5.48046 -1.48116 65.56841 -1.04043 -12.35306 -25.0391 -7.76856 -1.44279 -2.99942 67.81031 9.02983 15.33771 -32.18421 -8.19758 2.87716 3.70871
0.24158 -0.00371 0.11164 474.41776 -48.0606 -3.94379 21.75576 6.94729 -4.25964 5.13521 -0.25217 -2.11994 24.84451 -11.28097 10.66337 28.80795 81.20516 -3.13887 -0.04062 19.77603 8.45929 -9.95684 38.12655 -78.11832 -5.18687 -1.36742 66.19893 -1.00277 -12.66105 -24.73613 -7.84117 -1.22104 -2.89823 68.48701 9.62761 16.70697 -32.41736 -8.18607 2.83445 3.68724
0.24241 -0.00404 0.11447 473.26532 -48.49434 -4.231 20.64994 7.09332 -3.88573 4.82857 -0.28658 -2.11994 26.19065 -10.79643 11.04647 27.10261 81.23356 -3.15169 -0.10229 20.82204 7.83623 -10.44827 37.18856 -78.60027 -4.87313 -1.23705 66.8523 -0.95134 -12.95187 -24.46929 -7.88652 -1.06188 -2.82514 69.20455 10.10418 17.70252 -32.64944 -8.1893 2.8197 3.68086
0.24324 -0.00447 0.11699 472.39165 -48.97278 -4.39936 19.51167 7.20101 -3.75027 4.61128 -0.29126 -2.11994 28.09055 -10.31769 12.23969 24.5917 80.64853 -3.52891 0.16262 21.93292 7.1258 -10.59063 35.90801 -79.00927 -4.5006 -1.0425 67.53974 -0.85238 -13.29074 -24.27392 -7.85411 -1.10472 -2.84334 70.02844 10.20599 17.60651 -32.85415 -8.24105 2.88905 3.71996
0.24408 -0.00493 0.11937 471.62165 -49.46888 -4.52604 18.35921 7.29158 -3.70106 4.42778 -0.29144 -2.11994 30.17532 -9.84158 13.69146 21.83228 79.86219 -4.02766 0.53753 23.08347 6.38681 -10.61934 34.49033 -79.38706 -4.11289 -0.8347 68.25051 -0.74001 -13.61722 -24.11638 -7.79526 -1.21226 -2.89071 70.89252 10.18245 17.13517 -33.05614 -8.30809 2.98667 3.77429
0.24491 -0.00538 0.1218 470.80398 -49.96011 -4.66821 17.21458 7.38461 -3.60744 4.23481 -0.30197 -2.11994 32.14264 -9.37461 15.00103 19.26768 79.19824 -4.45387 0.85085 24.23986 5.66234 -10.70553 33.1167 -79.77413 -3.74041 -0.64562 68.95992 -0.63802 -13.93452 -23.95173 -7.75195 -1.2849 -2.92245 71.73925 10.22113 16.85337 -33.26333 -8.36704 3.06964 3.82069
0.24577 -0.00583 0.12431 469.98903 -50.43772 -4.82744 16.06205 7.49986 -3.53636 4.01468 -0.276 -2.11994 34.25254 -8.86117 16.4072 16.34884 78.40433 -4.95342 1.21387 25.29527 4.93028 -10.77446 31.81388 -80.18323 -3.33148 -0.40343 69.63348 -0.5188 -14.30456 -23.74683 -7.69344 -1.37762 -2.96274 72.58374 10.24233 16.49554 -33.45707 -8.43007 3.15965 3.87106
0.24656 -0.00628 0.12662 469.19362 -50.9477 -4.94063 14.92329 7.56557 -3.43964 3.85994 -0.32619 -2.11994 36.11224 -8.44475 17.67467 14.10796 77.83163 -5.32993 1.4989 26.56885 4.20917 -10.84869 30.33905 -80.53828 -2.9954 -0.26799 70.38522 -0.4316 -14.56489 -23.63356 -7.66031 -1.44515 -2.99272 73.44106 10.26838 16.20592 -33.67642 -8.48838 3.24189 3.91686
0.24715 -0.00669 0.12845 468.41751 -51.5465 -4.93227 13.82766 7.48938 -3.23813 3.87836 -0.57998 -2.11994 37.19346 -8.3139 18.51905 13.85185 77.93743 -5.32501 1.54545 28.45587 3.50708 -10.97532 28.3531 -80.7546 -2.86405 -0.43675 71.35706 -0.44038 -14.53395 -23.76758 -7.70529 -1.42645 -2.98689 74.33327 10.33798 16.18929 -33.97297 -8.53156 3.29648 3.94683
0.24764 -0.00709 0.13007 467.65887 -52.1767 -4.8794 12.74667 7.36533 -3.00987 3.96141 -0.91235 -2.11994 38.02359 -8.27775 19.21232 14.27896 78.2696 -5.1941 1.50899 30.5576 2.82047 -11.1082 26.21171 -80.91686 -2.80693 -0.71186 72.40438 -0.48099 -14.3931 -23.99123 -7.77651 -1.38074 -2.96993 75.23503 10.41602 16.25451 -34.29373 -8.56932 3.34227 3.97163
0.24816 -0.0075 0.13177 466.89833 -52.79013 -4.8496 11.65785 7.26948 -2.80227 4.01489 -1.21363 -2.11994 38.99573 -8.18697 19.96058 14.36098 78.48612 -5.12851 1.50792 32.54759 2.13847 -11.23108 24.18725 -81.10194 -2.71585 -0.93481 73.41063 -0.50415 -14.29825 -24.17171 -7.83472 -1.34841 -2.95842 76.12644 10.49012 16.28682 -34.59941 -8.60855 3.39167 3.99847
0.24877 -0.00792 0.13355 466.11657 -53.41461 -4.80662 10.57227 7.1468 -2.56241 4.07113 -1.49425 -2.11994 39.85681 -8.14545 20.77415 14.57957 78.74921 -5.03318 1.52033 34.5983 1.4057 -11.3813 21.96281 -81.29364 -2.62439 -1.17516 74.4473 -0.53943 -14.21881 -24.36527 -7.89648 -1.31368 -2.94624 77.04526 10.5612 16.28974 -34.92296 -8.6523 3.44358 4.02709
0.24917 -0.0083 0.13512 465.38099 -54.02344 -4.78076 9.4851 7.06764 -2.38151 4.13553 -1.83784 -2.11994 40.88694 -8.02343 21.41408 14.67994 78.97209 -4.96827 1.48377 36.57355 0.78349 -11.47631 20.11948 -81.45875 -2.55254 -1.40253 75.437 -0.55719 -14.08217 -24.55056 -7.95754 -1.27662 -2.93242 77.90793 10.64116 16.37601 -35.21416 -8.68542 3.48794 4.05068
0.24907 -0.00859 0.13617 464.77557 -54.57961 -4.81593 8.37781 7.13091 -2.37622 4.21471 -2.32574 -2.11994 42.44509 -7.65894 21.59943 14.28365 79.0264 -5.01763 1.32952 38.28205 0.45725 -11.42906 19.37112 -81.56662 -2.50855 -1.5867 76.28839 -0.51895 -13.80828 -24.70688 -8.00925 -1.24037 -2.91699 78.61948 10.75279 16.69276 -35.41795 -8.68817 3.51228 4.06068
0.24877 -0.00884 0.13702 464.2144 -55.11897 -4.86963 7.27102 7.23788 -2.42977 4.2978 -2.87608 -2.11994 44.18033 -7.20956 21.61804 13.74737 79.03397 -5.10149 1.12878 39.90732 0.24342 -11.32523 19.01229 -81.64918 -2.48341 -1.75072 77.0877 -0.46202 -13.48196 -24.84887 -8.05963 -1.2023 -2.90011 79.27255 10.87205 17.08873 -35.58696 -8.68074 3.52942 4.0659
0.24855 -0.0091 0.13793 463.62768 -55.66736 -4.91303 6.1717 7.31789 -2.4516 4.37419 -3.40487 -2.11994 45.83467 -6.79709 21.71731 13.27754 79.06525 -5.16928 0.95063 41.57532 -0.01872 -11.23908 18.47179 -81.74155 -2.45496 -1.91178 77.90458 -0.41354 -13.18372 -24.98657 -8.11148 -1.16431 -2.88362 79.94843 10.98225 17.4368 -35.76664 -8.6795 3.55062 4.0739
0.24839 -0.00942 0.13894 463.06387 -56.21185 -4.96233 5.0393 7.42571 -2.49282 4.47534 -3.90833 -2.11994 47.48538 -6.39508 21.7834 12.81648 79.09347 -5.23426 0.76364 43.23332 -0.29408 -11.18353 17.94215 -81.83922 -2.40661 -2.12767 78.75087 -0.36624 -12.86338 -25.17207 -8.16074 -1.12847 -2.8679 80.6417 11.11588 17.83729 -35.96852 -8.67168 3.56831 4.07921
0.24805 -0.00961 0.1397 462.46354 -56.75895 -5.0049 3.97712 7.48721 -2.5089 4.52287 -4.4774 -2.11994 49.18493 -5.94974 21.8903 12.29878 79.11457 -5.31508 0.58491 44.88558 -0.51286 -11.0551 17.4885 -81.92045 -2.40357 -2.22322 79.5213 -0.31175 -12.57844 -25.25463 -8.2145 -1.08819 -2.8504 81.28334 11.20295 18.14692 -36.11601 -8.675 3.5916 4.08898
0.24724 -0.00947 0.13985 461.74344 -57.32648 -5.01997 3.09716 7.40519 -2.43296 4.4388 -5.21985 -2.11994 51.00888 -5.40711 22.07164 11.62647 79.12242 -5.43002 0.44173 46.57436 -0.62458 -10.70218 17.11617 -81.96347 -2.51783 -1.99035 80.10491 -0.24095 -12.40151 -25.04546 -8.28292 -1.03496 -2.82803 81.80811 11.15537 18.18195 -36.11807 -8.71351 3.633 4.11304
0.24625 -0.00921 0.13975 460.98651 -57.89518 -5.02882 2.29017 7.27618 -2.33124 4.29677 -6.02406 -2.11994 52.86916 -4.82348 22.31581 10.9063 79.12485 -5.5604 0.30835 48.25237 -0.67916 -10.28486 16.81423 -81.99083 -2.6773 -1.6367 80.61152 -0.16357 -12.26317 -24.73476 -8.3554 -0.97764 -2.80403 82.28057 11.0615 18.12332 -36.06714 -8.76325 3.68015 4.14164
0.24534 -0.00901 0.13975 460.25166 -58.45742 -5.04348 1.45696 7.17223 -2.24696 4.16991 -6.79511 -2.11994 54.69476 -4.25658 22.58315 10.22384 79.13149 -5.68535 0.17032 49.91431 -0.74591 -9.92125 16.50217 -82.02506 -2.81777 -1.33857 81.14681 -0.08972 -12.10927 -24.47729 -8.42466 -0.92305 -2.78105 82.7697 10.99149 18.10995 -36.04284 -8.80662 3.72414 4.16768
0.24443 -0.00879 0.13981 459.49576 -59.04486 -5.04564 0.59349 7.05433 -2.14097 4.0916 -7.59121 -2.11994 56.61048 -3.69302 22.62416 9.46277 79.12789 -5.80543 0.03251 51.66536 -0.86745 -9.45216 16.10976 -82.05967 -2.95233 -1.03732 81.70794 -0.01301 -11.94464 -24.18949 -8.49976 -0.86475 -2.75686 83.28758 10.9096 18.08772 -36.00671 -8.85503 3.77023 4.19566
0.24347 -0.00858 0.13968 458.77445 -59.57942 -5.07274 -0.18838 6.95351 -2.07276 3.89683 -8.3473 -2.11994 58.3356 -3.11611 23.15625 8.86429 79.14665 -5.93799 -0.10416 53.2251 -0.8622 -9.18862 15.89823 -82.08978 -3.10981 -0.71391 82.19645 0.05914 -11.81281 -23.94085 -8.5636 -0.81318 -2.7348 83.73291 10.84165 18.06104 -35.98296 -8.89569 3.81336 4.22073
0.24241 -0.00841 0.13914 458.15682 -59.9753 -5.16507 -0.77312 6.91325 -2.11967 3.40788 -8.99115 -2.11994 59.60288 -2.49272 25.00637 8.65245 79.21272 -6.10757 -0.22757 54.29487 -0.52624 -9.50456 16.15069 -82.11449 -3.31774 -0.36126 82.51307 0.11654 -11.75759 -23.8254 -8.59577 -0.78183 -2.7191 83.99939 10.82111 18.04082 -36.00744 -8.91247 3.84747 4.23677
0.24129 -0.00825 0.13841 457.57519 -60.31659 -5.2837 -1.27618 6.89113 -2.20424 2.80168 -9.5894 -2.11994 60.66112 -1.86092 27.352 8.61935 79.30401 -6.28685 -0.3518 55.16617 -0.0644 -10.02998 16.5835 -82.1348 -3.54717 0.00947 82.75756 0.16923 -11.7352 -23.7527 -8.6164 -0.7573 -2.70557 84.19334 10.81664 18.01954 -36.04613 -8.92106 3.87835 4.24972
